<?xml version="1.0" encoding="UTF-8"?>
<!DOCTYPE svg PUBLIC "-//W3C//DTD SVG 1.1//EN" "http://www.w3.org/Graphics/SVG/1.1/DTD/svg11.dtd">
<!-- Creator: CorelDRAW -->
<svg xmlns="http://www.w3.org/2000/svg" xml:space="preserve" width="34.5045mm" height="23.734mm" version="1.1" style="shape-rendering:geometricPrecision; text-rendering:geometricPrecision; image-rendering:optimizeQuality; fill-rule:evenodd; clip-rule:evenodd"
viewBox="0 0 3381.26 2325.8"
 xmlns:xlink="http://www.w3.org/1999/xlink"
 xmlns:xodm="http://www.corel.com/coreldraw/odm/2003">
 <defs>
  <style type="text/css">
   <![CDATA[
    .fil0 {fill:#176197;fill-rule:nonzero}
    .fil3 {fill:url(#id0)}
    .fil4 {fill:url(#id1)}
    .fil1 {fill:url(#id2)}
    .fil2 {fill:url(#id3)}
   ]]>
  </style>
  <linearGradient id="id0" gradientUnits="userSpaceOnUse" x1="549" y1="1450.27" x2="299.94" y2="142.99">
   <stop offset="0" style="stop-opacity:1; stop-color:#1C91CC"/>
   <stop offset="0.219608" style="stop-opacity:1; stop-color:#1D89C4"/>
   <stop offset="0.380392" style="stop-opacity:1; stop-color:#1E81BB"/>
   <stop offset="0.760784" style="stop-opacity:1; stop-color:#265F95"/>
   <stop offset="1" style="stop-opacity:1; stop-color:#2A5489"/>
  </linearGradient>
  <linearGradient id="id1" gradientUnits="userSpaceOnUse" xlink:href="#id0" x1="2084.74" y1="1269.32" x2="1938.7" y2="148.03">
  </linearGradient>
  <linearGradient id="id2" gradientUnits="userSpaceOnUse" xlink:href="#id0" x1="1205.4" y1="2.46" x2="1380.04" y2="1467.4">
  </linearGradient>
  <linearGradient id="id3" gradientUnits="userSpaceOnUse" xlink:href="#id0" x1="2548.6" y1="1.34" x2="2714.86" y2="1467.48">
  </linearGradient>
 </defs>
 <g id="Слой_x0020_1">
  <metadata id="CorelCorpID_0Corel-Layer"/>
  <g id="_1638074321680">
   <path class="fil0" d="M543.55 2316.61l-10.86 -256.3c-3.95,-104.81 -5.92,-194.01 -5.92,-267.51l-1.98 0c-19.07,84.4 -40.78,168.11 -65.1,251.18l-73.99 261.38 -109.5 0 -66.09 -259.34c-22.36,-83.74 -40.45,-168.13 -54.26,-253.22l-2.95 0c0,1.37 -3.3,91.21 -9.87,269.54l-12.83 254.26 -130.22 0 44.4 -688.19 180.52 0 61.16 234.84c25,98.01 43.07,179.69 54.25,245.05l2.96 0c17.1,-84.39 35.86,-166.09 56.23,-245.05l65.11 -234.84 178.55 0 37.48 688.19 -137.1 0z"/>
   <polygon class="fil0" points="1135.75,1900.01 1135.75,2021.52 918.73,2021.52 918.73,2193.07 1161.39,2193.07 1161.39,2316.61 774.71,2316.61 774.71,1628.43 1147.59,1628.43 1147.59,1751.97 918.73,1751.97 918.73,1900.01 "/>
   <path class="fil0" d="M1244.57 2313.54l0 -675.93c56.56,-9.54 117.07,-14.3 181.51,-14.3 106.54,0 188.41,23.48 245.63,70.45 69.71,57.18 104.56,145.35 104.56,264.45 0,126.63 -34.85,220.9 -104.56,282.83 -61.82,55.14 -153.56,82.72 -275.23,82.72 -56.54,0 -107.19,-3.41 -151.91,-10.22zm144.02 -568.73l0 458.46c7.24,1.38 21.7,2.04 43.4,2.04 59.19,0.68 106.06,-19.21 140.58,-59.73 34.53,-40.5 51.78,-102.27 51.78,-185.32 0,-70.79 -15.79,-125.25 -47.35,-163.37 -31.57,-38.13 -75.96,-57.18 -133.17,-57.18 -23.67,0 -42.08,1.7 -55.24,5.1z"/>
   <path class="fil0" d="M1855.53 2313.54l0 -675.93c56.55,-9.54 117.04,-14.3 181.51,-14.3 106.53,0 188.4,23.48 245.62,70.45 69.7,57.18 104.56,145.35 104.56,264.45 0,126.63 -34.86,220.9 -104.56,282.83 -61.82,55.14 -153.55,82.72 -275.23,82.72 -56.55,0 -107.19,-3.41 -151.9,-10.22zm144.02 -568.73l0 458.46c7.23,1.38 21.69,2.04 43.4,2.04 59.18,0.68 106.05,-19.21 140.58,-59.73 34.51,-40.5 51.77,-102.27 51.77,-185.32 0,-70.79 -15.78,-125.25 -47.35,-163.37 -31.57,-38.13 -75.96,-57.18 -133.17,-57.18 -23.67,0 -42.08,1.7 -55.23,5.1z"/>
   <polygon class="fil0" points="2827.51,1900.01 2827.51,2021.52 2610.49,2021.52 2610.49,2193.07 2853.15,2193.07 2853.15,2316.61 2466.48,2316.61 2466.48,1628.43 2839.35,1628.43 2839.35,1751.97 2610.49,1751.97 2610.49,1900.01 "/>
   <path class="fil0" d="M3353.63 2180.81l19.73 119.47c-34.21,17 -83.85,25.53 -148.95,25.53 -102.6,0 -181.52,-31.83 -236.76,-95.5 -55.24,-63.63 -82.86,-146.5 -82.86,-248.61 0,-115.71 31.89,-205.06 95.69,-268.03 63.78,-62.96 143.36,-94.46 238.72,-94.46 61.82,0 109.16,8.85 142.05,26.56l-28.61 119.47c-30.26,-14.97 -65.77,-22.46 -106.53,-22.46 -55.25,0 -100.62,19.58 -136.13,58.69 -35.51,39.16 -53.27,96.51 -53.27,172.07 0,72.15 16.91,127.8 50.79,166.93 33.88,39.14 80.4,58.71 139.59,58.71 40.11,0 75.62,-6.11 106.54,-18.36z"/>
   <path class="fil1" d="M1262.61 1.22c-134.55,3.44 -269.19,2.84 -403.84,2.23 -61.74,-0.24 -123.51,-0.54 -185.23,-0.43 -2.98,0 -6,-0.17 -9.08,-0.36 -11.31,-0.71 -23.41,-1.44 -37.11,7.89 69.98,26.76 102.65,85.89 128.75,148.68 83.33,200.37 164.75,401.59 247.14,602.38 80.13,195.34 159.66,390.96 241.28,585.66 33.79,80.63 91.9,124.98 181.53,124.13 134.02,-1.25 268.1,-0.92 402.17,-0.62 66.69,0.15 133.39,0.3 200.11,0.29 14.18,0 29.23,4 50.51,-11.44 -69,-36.89 -105.45,-97.63 -132,-163.48 -49.06,-121.72 -98.83,-243.08 -149.47,-364.1 -109.42,-261.51 -215.52,-524.54 -324.06,-786.46 -38.31,-92.42 -100.17,-144.49 -202.74,-144.48 -2.62,0 -5.27,0.01 -7.95,0.1l0 0z"/>
   <path class="fil2" d="M2639.68 0l-0.22 0 -0.21 0 -0.21 0 -0.21 0 -0.21 0 -0.21 0 -0.21 0 -0.21 0c-3.86,0 -7.78,0.09 -11.78,0.29l0 0c-134.72,5.95 -269.72,4.75 -404.71,3.56 -60.05,-0.53 -120.09,-1.05 -180.08,-0.99 -2.37,0.03 -4.77,-0.11 -7.21,-0.23 -10.53,-0.57 -22.02,-1.15 -35.99,8.97 70.31,26.63 103.96,84.86 130.1,148.05 78.92,190.93 156.53,382.44 234.47,573.84 93.88,230.46 188.5,460.61 280.39,691.91 14.41,36.24 33.38,46.46 68.85,46.23 147.77,-1.01 295.56,-0.88 443.35,-0.73 54.49,0.02 109.02,0.07 163.52,0.05 71.19,-0.03 72.62,-3.77 43.19,-73.64 -54.48,-129.25 -107.84,-259.01 -161.33,-388.71 -117.92,-285.75 -233.83,-572.42 -354.39,-856.97 -38.82,-91.68 -98.75,-151.64 -206.72,-151.64z"/>
   <path class="fil3" d="M507.97 242.77c-6.52,9.91 -10.66,21.57 -15.25,32.75 -156.3,380.88 -312.54,761.8 -468.77,1142.72 -17.44,42.51 -12.87,50.69 32.01,50.94 105.52,0.51 211.05,0.16 316.58,0.16l0 0.44c96.71,0 193.63,-3.52 290.13,1.38 53.42,2.74 79.52,-18.8 98.44,-67.16 51.71,-132.07 105.05,-263.47 161,-393.65 16.49,-38.39 15.64,-70.31 0.23,-108.04 -67.26,-164.8 -132.04,-330.68 -198.24,-495.97 -21.86,-54.58 -44.09,-109.12 -68.59,-162.49 -14.72,-32.04 -36.01,-61.93 -73.92,-64.12 -1.25,-0.07 -2.45,-0.11 -3.64,-0.11 -38,0 -51.93,35.69 -69.98,63.16l0 0z"/>
   <path class="fil4" d="M1946.7 179.81c-35.89,3.68 -55.18,31.62 -68.61,63.41 -33.41,79.18 -66.11,158.67 -99.48,237.84 -9.99,23.7 -9.56,45.48 0.7,69.82 35.1,83.32 67.9,167.69 102.14,251.41 57.66,140.94 113.53,282.71 174.47,422.09 35.91,82.09 92.92,83.26 139.63,7.95 6.31,-10.16 11.93,-20.92 16.7,-31.94 21.53,-49.8 43.26,-99.51 63.73,-149.81 12.44,-30.6 22.71,-62.14 34.62,-95.12 -4.34,-12.12 -8.53,-24.91 -13.47,-37.39 -51.69,-130.36 -103,-260.91 -155.44,-390.94 -39.45,-97.85 -79.15,-195.65 -121.46,-292.18 -12.46,-28.5 -32.72,-55.5 -66.6,-55.5 -2.24,0 -4.56,0.12 -6.92,0.37l0 0z"/>
  </g>
 </g>
</svg>
